<svg width="200" height="200" viewBox="0 0 200 200" xmlns="http://www.w3.org/2000/svg">
  <!-- Grid background -->
  <rect width="200" height="200" fill="#0e1013" />
  
  <!-- Circuit paths -->
  <g stroke="#43aa8b" stroke-width="1" fill="none" stroke-opacity="0.15">
    <!-- Horizontal lines -->
    <path d="M0 20 H200" />
    <path d="M0 60 H200" />
    <path d="M0 100 H200" />
    <path d="M0 140 H200" />
    <path d="M0 180 H200" />
    
    <!-- Vertical lines -->
    <path d="M20 0 V200" />
    <path d="M60 0 V200" />
    <path d="M100 0 V200" />
    <path d="M140 0 V200" />
    <path d="M180 0 V200" />
    
    <!-- Circuit connections -->
    <path d="M20 20 H40 V40 H60" />
    <path d="M100 20 H120 V80 H140" />
    <path d="M180 60 V80 H160 V100" />
    <path d="M20 100 H40 V140 H100" />
    <path d="M140 140 V160 H180" />
    <path d="M60 180 H80 V160 H100" />
  </g>
  
  <!-- Circuit nodes -->
  <g fill="#4cc9f0" fill-opacity="0.3">
    <circle cx="20" cy="20" r="3" />
    <circle cx="60" cy="60" r="3" />
    <circle cx="100" cy="20" r="3" />
    <circle cx="140" cy="80" r="3" />
    <circle cx="180" cy="60" r="3" />
    <circle cx="20" cy="100" r="3" />
    <circle cx="100" cy="140" r="3" />
    <circle cx="140" cy="140" r="3" />
    <circle cx="60" cy="180" r="3" />
    <circle cx="100" cy="160" r="3" />
  </g>
  
  <!-- Circuit components -->
  <g stroke="#f72585" stroke-width="1" fill="none" stroke-opacity="0.2">
    <rect x="38" y="38" width="4" height="4" />
    <rect x="118" y="58" width="4" height="4" />
    <rect x="158" y="98" width="4" height="4" />
    <rect x="78" y="158" width="4" height="4" />
  </g>
</svg> 